<svg xmlns="http://www.w3.org/2000/svg" viewBox="0 0 512 512" width="100%" height="100%">
  <!-- Outer Circular Ring (Classic badge border) -->
  <circle cx="256" cy="256" r="230" fill="none" stroke="#000" stroke-width="36" />
  
  <!-- Inner Rim Circle -->
  <circle cx="256" cy="256" r="190" fill="none" stroke="#000" stroke-width="12" />

  <!-- T Letter (Top Half) -->
  <path d="M 140 160 H 372 V 212 H 282 V 336 H 230 V 212 H 140 Z" fill="#000" />

  <!-- S Letter (Bottom Half interwoven through the vintage style) -->
  <path d="M 330 312 C 330 286 304 272 260 262 C 210 250 182 238 182 208 C 182 182 208 166 246 166 C 282 166 312 184 322 216 L 278 238 C 272 220 258 210 244 210 C 230 210 222 218 222 228 C 222 242 240 250 280 260 C 332 272 370 292 370 334 C 370 366 340 384 294 384 C 244 384 206 362 190 322 L 234 300 C 244 326 266 340 296 340 C 322 340 330 328 330 312 Z" fill="#000" transform="translate(0, 10) scale(0.9)" />
</svg>
